# xmcd
#
# Track frame offsets: 
#        182
#        19252
#        33097
#        45522
#        57195
#        67137
#        79837
#        93685
#        103245
#        119135
#        132157
#        141677
#
# Disc length: 2007 seconds
#
# Revision: 2
# Processed by: cddbd v1.4PL0 Copyright (c) Steve Scherf et al.
# Submitted via: ExactAudioCopy v0.90b2
#
DISCID=b507d50c
DTITLE=Tom T. Hall - Great Country Hits
DYEAR=1900
DGENRE=Country
TTITLE0=Old Dogs, Children And Watermelon Wine
TTITLE1=A Week In A Country Jail
TTITLE2=The Year That Clayton Delaney Died
TTITLE3=Deal
TTITLE4=Country Is
TTITLE5=It's All In The Game
TTITLE6=Ballad Of Forty Dollars
TTITLE7=Fox On The Run
TTITLE8=More About John Henry
TTITLE9=Faster Horses
TTITLE10=I Care
TTITLE11=Sneaky Snake
EXTD=
EXTT0=
EXTT1=
EXTT2=
EXTT3=
EXTT4=
EXTT5=
EXTT6=
EXTT7=
EXTT8=
EXTT9=
EXTT10=
EXTT11=
PLAYORDER=
